<svg
                      width="21"
                      height="17"
                      viewBox="0 0 21 17"
                      fill="none"
                      xmlns="http://www.w3.org/2000/svg"
                    >
                      <path
                        d="M19.551 6.92871L17.8888 2.16871C17.4357 0.871857 16.2096 0 14.8381 0H6.16188C4.79042 0 3.56435 0.871857 3.11204 2.1679L1.44981 6.9279C0.562154 7.51319 0 8.52429 0 9.63657V15.381C0 16.2755 0.722885 17 1.61538 17C2.50788 17 3.23077 16.2755 3.23077 15.381V14.3601C3.23077 14.3601 7.49619 14.5714 10.5 14.5714C13.5038 14.5714 17.7692 14.3601 17.7692 14.3601V15.381C17.7692 16.2755 18.4921 17 19.3846 17C20.2771 17 21 16.2755 21 15.381V9.63657C21 8.52429 20.437 7.51319 19.551 6.92871ZM3.71135 5.35338L4.63696 2.703C4.86392 2.05376 5.47535 1.61905 6.16188 1.61905H14.8381C15.5247 1.61905 16.1361 2.05376 16.363 2.703L17.2887 5.35338C17.434 5.77029 17.0875 6.19043 16.6522 6.12C15.0683 5.86338 13.0321 5.66667 10.5 5.66667C7.96788 5.66667 5.93169 5.86338 4.34781 6.12C3.91246 6.19043 3.56596 5.77029 3.71135 5.35338ZM3.63462 11.3333C2.96585 11.3333 2.42308 10.7893 2.42308 10.119C2.42308 9.44876 2.96585 8.90476 3.63462 8.90476C4.30338 8.90476 4.84615 9.44876 4.84615 10.119C4.84615 10.7893 4.30338 11.3333 3.63462 11.3333ZM12.9231 10.5238H8.07692C7.63108 10.5238 7.26923 10.1611 7.26923 9.71429C7.26923 9.26743 7.63108 8.90476 8.07692 8.90476H12.9231C13.3689 8.90476 13.7308 9.26743 13.7308 9.71429C13.7308 10.1611 13.3689 10.5238 12.9231 10.5238ZM17.3654 11.3333C16.6966 11.3333 16.1538 10.7893 16.1538 10.119C16.1538 9.44876 16.6966 8.90476 17.3654 8.90476C18.0342 8.90476 18.5769 9.44876 18.5769 10.119C18.5769 10.7893 18.0342 11.3333 17.3654 11.3333Z"
                        fill="#44699F"
                      />
                    </svg>