<svg width="61" height="21" viewBox="0 0 61 21" fill="none" xmlns="http://www.w3.org/2000/svg">
<path d="M8.89953 0.348053C10.7206 0.348053 12.2968 0.647777 13.6283 1.24723C14.9794 1.84667 16.0172 2.6975 16.7417 3.79971C17.4662 4.90192 17.8284 6.20717 17.8284 7.71546C17.8284 9.20441 17.4662 10.5097 16.7417 11.6312C16.0172 12.7334 14.9794 13.5842 13.6283 14.1837C12.2968 14.7638 10.7206 15.0539 8.89953 15.0539H4.75816V20.6519H0V0.348053H8.89953ZM8.63518 11.2251C10.0646 11.2251 11.1513 10.9254 11.8954 10.326C12.6395 9.70717 13.0115 8.837 13.0115 7.71546C13.0115 6.57457 12.6395 5.70441 11.8954 5.10496C11.1513 4.48618 10.0646 4.17678 8.63518 4.17678H4.75816V11.2251H8.63518Z" fill="#515662"/>
<path d="M33.733 16.3011H24.1873L22.3663 20.6519H17.4907L26.6545 0.348053H31.3539L40.5472 20.6519H35.554L33.733 16.3011ZM32.2351 12.7334L28.9749 4.95993L25.7146 12.7334H32.2351Z" fill="#515662"/>
<path d="M55.7799 20.6519L51.8148 14.9958H51.5798H47.4384V20.6519H42.6803V0.348053H51.5798C53.4008 0.348053 54.9771 0.647777 56.3086 1.24723C57.6597 1.84667 58.6975 2.6975 59.422 3.79971C60.1464 4.90192 60.5087 6.20717 60.5087 7.71546C60.5087 9.22374 60.1367 10.529 59.3926 11.6312C58.6681 12.7141 57.6303 13.5456 56.2792 14.1257L60.8905 20.6519H55.7799ZM55.6918 7.71546C55.6918 6.57457 55.3198 5.70441 54.5757 5.10496C53.8316 4.48618 52.7449 4.17678 51.3155 4.17678H47.4384V11.2541H51.3155C52.7449 11.2541 53.8316 10.9447 54.5757 10.326C55.3198 9.70717 55.6918 8.837 55.6918 7.71546Z" fill="#515662"/>
</svg>
