<svg width="74" height="21" viewBox="0 0 74 21" fill="none" xmlns="http://www.w3.org/2000/svg">
<path d="M7.48971 12.6754L4.72879 15.518V20.6519H0V0.348066H4.72879V9.83287L13.8339 0.348066H19.1208L10.6031 9.39779L19.6201 20.6519H14.0689L7.48971 12.6754Z" fill="#44699F"/>
<path d="M21.7417 0.348066H26.4999V20.6519H21.7417V0.348066Z" fill="#44699F"/>
<path d="M50.2356 0.348066V20.6519H46.3292L36.0786 8.32459V20.6519H31.3792V0.348066H35.3149L45.5362 12.6754V0.348066H50.2356Z" fill="#44699F"/>
<path d="M68.9927 10.1809H73.3396V18.4185C72.2235 19.25 70.9312 19.8881 69.4626 20.3329C67.994 20.7776 66.5157 21 65.0275 21C62.8932 21 60.9743 20.5553 59.2707 19.6657C57.5672 18.7569 56.2259 17.5097 55.2469 15.924C54.2874 14.3191 53.8077 12.511 53.8077 10.5C53.8077 8.48895 54.2874 6.69061 55.2469 5.10497C56.2259 3.5 57.577 2.25276 59.3001 1.36326C61.0232 0.45442 62.9617 0 65.1156 0C66.9171 0 68.5521 0.299724 70.0207 0.89917C71.4892 1.49862 72.7228 2.36878 73.7214 3.50967L70.6668 6.2942C69.1982 4.76658 67.4262 4.00276 65.3506 4.00276C64.0387 4.00276 62.8736 4.27348 61.8554 4.81492C60.8372 5.35635 60.0442 6.12017 59.4763 7.10635C58.9085 8.09254 58.6246 9.22376 58.6246 10.5C58.6246 11.7569 58.9085 12.8785 59.4763 13.8646C60.0442 14.8508 60.8274 15.6243 61.826 16.1851C62.8442 16.7265 63.9995 16.9972 65.2919 16.9972C66.6625 16.9972 67.8961 16.7072 68.9927 16.1271V10.1809Z" fill="#44699F"/>
</svg>
